<svg xmlns="http://www.w3.org/2000/svg" viewBox="0 0 400 300" width="400" height="300">
  <path d="M275,244.80786c-25.12357,0 -45.50353,-20.37996 -45.50353,-45.32784h19.6772c0,14.58221 11.06843,26.52908 25.82633,26.52908c14.7579,0 25.82633,-11.94687 25.82633,-26.52908h19.6772c0,24.94788 -20.37996,45.32784 -45.50353,45.32784zM272.89173,137.11031v-18.62307h-21.25841zM276.93258,127.62309c0,5.44637 4.39223,9.8386 9.8386,9.8386c5.44637,0 9.8386,-4.39223 9.8386,-9.8386c0,-5.44637 -4.39223,-9.8386 -9.8386,-9.8386c-5.44637,0 -9.8386,4.39223 -9.8386,9.8386zM320.50353,118.48725h-19.6772v76.07347h19.6772z" fill="#000000"/>
</svg>
